# xmcd
#
# Track frame offsets:
#	150
#	10049
#	26651
#	43508
#	58500
#	76497
#	95852
#	111289
#	128441
#	147913
#	163704
#	179674
#	195964
#	204069
#
# Disc length: 2882 seconds
#
# Revision: 1
# Processed by: cddbd v1.5.1PL2 Copyright (c) Steve Scherf et al.
# Submitted via: audiograbber 1.83.01
#
DISCID=b30b400e
DTITLE=Joanne Shenandoah - Matriarch
DYEAR=1996
DGENRE=Native American
TTITLE0=Kahawi'tha (She Carries It Along)
TTITLE1=Kanekotsy^: Tha? (She Dips Water)
TTITLE2=Yakolihuny^Hi (She Teaches)
TTITLE3=Katsitsy^Tha? (She Knocks Petals from the Flowers)
TTITLE4=Tekanatsyaslitha (She Breaks the Kettle)
TTITLE5=Tsyakow^Niyo (Her Words Are Good Again)
TTITLE6=Kaluhyanu: Wes (She's Fond of the Sky)
TTITLE7=Katsitsi?: Yos (Pretty Flowers)
TTITLE8=Tekalihwa Kwha (She Sings)
TTITLE9=Kalunyaha: Wi (She Carries the Sky)
TTITLE10=Taw^: Tene? (She Leads the Dawn)
TTITLE11=Kahlu'nyuhe? (She Puts Them Up)
TTITLE12=K^Nikast?Sla (Little Feather)
TTITLE13=Extra
EXTD=
EXTT0=
EXTT1=
EXTT2=
EXTT3=
EXTT4=
EXTT5=
EXTT6=
EXTT7=
EXTT8=
EXTT9=
EXTT10=
EXTT11=
EXTT12=
EXTT13=
PLAYORDER=
